<?xml version="1.0" encoding="utf-8"?>
<!-- Generator: Adobe Illustrator 16.2.0, SVG Export Plug-In . SVG Version: 6.00 Build 0)  -->
<!DOCTYPE svg PUBLIC "-//W3C//DTD SVG 1.1//EN" "http://www.w3.org/Graphics/SVG/1.1/DTD/svg11.dtd">
<svg version="1.1" xmlns="http://www.w3.org/2000/svg" xmlns:xlink="http://www.w3.org/1999/xlink" x="0px" y="0px" width="2100px"
	 height="1350px" viewBox="0 0 2100 1350" enable-background="new 0 0 2100 1350" xml:space="preserve">
<g id="Layer_2">
	<rect fill-rule="evenodd" clip-rule="evenodd" width="2100" height="1350"/>
</g>
<g id="Layer_1">
	<g>
		<path fill="none" d="M1266.439,654.924h0.654c0.726-0.826,1.45-1.668,2.169-2.522
			C1268.374,653.149,1267.432,653.991,1266.439,654.924z"/>
		<path fill="none" d="M943.802,698.413c1.138-1.837,1.799-3.712,1.995-5.681c-0.924,0.521-1.709,0.955-2.374,1.313
			c-1.206,0.652-2.251,1.217-3.134,1.688c-0.875,0.47-1.635,0.88-2.278,1.234c-0.585,0.318-1.185,0.701-1.787,1.14l-0.175,0.11
			c-4.474,2.397-7.767,4.664-9.79,6.736c-1.964,2.021-3.205,3.771-3.685,5.2c-0.215,0.55-0.302,0.896-0.336,1.1
			c0.279,0.095,0.605,0.118,0.861,0.118l0.19,0.012c1.608,0.208,3.729-0.245,6.332-1.318c2.735-1.126,5.401-2.699,7.923-4.676
			C940.036,703.438,942.141,701.091,943.802,698.413z"/>
		<path fill="none" d="M916.857,682.464c1.411-1.037,2.799-2.166,4.128-3.359c-0.274-0.235-0.554-0.493-0.821-0.76
			c-0.003,0-0.275-0.186-1.236-0.186c-0.719,0-1.559,0.338-2.49,0.974c-0.262,0.563-0.637,0.863-0.979,1.01
			c-0.397,0.306-0.861,0.645-1.38,1.012c-0.349,0.365-0.686,0.739-0.996,1.135c-0.875,1.116-1.5,2.175-1.861,3.146
			c-0.06,0.161-0.099,0.295-0.126,0.403c0.343-0.077,0.845-0.254,1.541-0.64C913.972,684.462,915.391,683.542,916.857,682.464z"/>
		<path fill="none" d="M943.365,677.665c-0.002,0.202-0.034,0.396-0.081,0.586c0.397-0.345,0.823-0.713,1.305-1.127
			c-0.158-0.062-0.314-0.134-0.468-0.219C943.864,677.17,943.612,677.423,943.365,677.665z"/>
		<path fill="none" d="M1260.65,661.395c0.37-0.333,0.732-0.662,1.087-0.985h-0.241
			C1261.241,660.703,1260.96,661.031,1260.65,661.395z"/>
		<path fill="none" d="M1158.802,686.901c0.961-0.556,2.038-1.272,3.203-2.13c1.165-0.859,2.316-1.811,3.421-2.825
			c0.956-0.878,1.771-1.679,2.431-2.387l0.145-1.289c-0.208-0.246-0.378-0.593-0.45-1.082c-0.104-0.034-0.334-0.093-0.763-0.093
			h-0.208l-0.201-0.057h-0.011c-0.059,0-0.604,0.032-1.831,1.166c-1.234,1.141-2.39,2.563-3.434,4.224
			c-1.716,2.453-2.264,3.827-2.425,4.543C1158.718,686.949,1158.759,686.926,1158.802,686.901z"/>
		<path fill="none" d="M1182.943,660.714c1.447-2.078,2.688-4.013,3.688-5.749c0.955-1.664,1.611-3.08,1.949-4.208
			c0.045-0.154,0.076-0.281,0.097-0.386c-0.414,0.104-1.296,0.521-2.78,2.107c-1.913,2.041-3.813,4.641-5.649,7.73
			c-1.86,3.125-3.537,6.439-4.984,9.849c-0.329,0.774-0.627,1.52-0.895,2.237c1.293-1.62,2.64-3.374,4.01-5.225
			C1179.949,664.949,1181.484,662.811,1182.943,660.714z"/>
		<path fill="none" d="M1221.465,682.464c1.409-1.033,2.797-2.162,4.131-3.359c-0.272-0.233-0.551-0.49-0.82-0.758
			c-0.002,0-0.271-0.188-1.238-0.188c-0.609,0-1.303,0.238-2.066,0.695c-0.128,0.21-0.273,0.415-0.457,0.609
			c-0.754,0.802-1.771,1.641-3.073,2.533c-0.081,0.099-0.167,0.192-0.246,0.293c-0.873,1.112-1.499,2.171-1.861,3.146
			c-0.06,0.16-0.1,0.294-0.126,0.402c0.343-0.077,0.844-0.254,1.54-0.64C1218.589,684.458,1220.008,683.538,1221.465,682.464z"/>
		<path fill="none" d="M1222.574,641.813c-1.141,0.93-2.286,1.936-3.435,3.013c-3.295,3.098-6.493,6.38-9.504,9.756
			c-1.231,1.382-2.424,2.762-3.571,4.133c0.5-0.487,1.002-0.975,1.505-1.464l1.224-1.191c2.529-2.467,4.878-4.842,6.981-7.059
			l0.186-0.196c2.041-2.149,3.557-3.745,4.548-4.779C1221.277,643.241,1221.967,642.501,1222.574,641.813z"/>
		<path fill="#FFFFFF" d="M1035.479,680.202c-0.524,0-1.053,0.192-1.622,0.608c-3.234,2.567-6.708,4.293-10.322,5.127
			c-3.612,0.835-6.97,0.921-9.984,0.264c-2.981-0.653-5.395-1.967-7.381-4.019c-1.927-1.984-2.903-4.5-2.984-7.652
			c0-1.209-0.885-2.055-2.153-2.055c-0.42,0-0.901,0.088-1.531,0.29c-0.879,0.321-1.583,0.329-2.173,0.005
			c-0.305-0.167-0.536-0.319-0.711-0.452c0.285-0.47,0.464-0.89,0.553-1.285c0.155-0.709,0.134-1.307-0.036-1.752
			c-0.355-1.116-1.317-1.783-2.572-1.783c-0.185,0-0.384,0.014-0.602,0.044c-1.475,0.212-2.394,1.424-2.735,3.603
			c-0.682,0.643-1.539,1.429-2.576,2.358c-0.674,0.607-1.266,1.146-1.794,1.632c-0.178,0.12-0.353,0.256-0.522,0.428
			c-2.403,2.039-5.301,4.029-8.617,5.917c-3.263,1.857-6.607,3.082-9.959,3.645c-1.606,0.292-2.966,0.116-4.148-0.545
			c-0.597-0.333-1.075-0.751-1.45-1.255c1.11-0.778,2.254-1.636,3.418-2.542c0.295-0.198,0.588-0.382,0.885-0.594
			c1.267-0.903,2.354-1.929,3.233-3.049c1.024-1.309,1.48-2.709,1.355-4.164c-0.147-1.668-1.059-2.854-2.572-3.339
			c-1.179-0.373-2.368-0.432-3.768-0.105c-1.548,0.422-3.083,1.389-4.563,2.874c-1.466,1.47-2.526,3.228-3.142,5.198
			c-0.361,1.077-0.558,2.099-0.625,3.071c-0.152,0.094-0.313,0.2-0.462,0.29c-2.192,1.313-4.526,2.617-6.939,3.874
			c-0.551-0.826-1.202-1.47-1.945-1.92c-0.204-0.123-0.406-0.241-0.608-0.355c0.773-0.656,1.48-1.286,2.113-1.883
			c1.012-0.953,2.458-2.118,4.301-3.464c1.057-0.612,1.426-1.795,0.934-3.062c-0.565-1.427-1.686-1.582-2.141-1.582
			c-0.28,0-0.567,0.052-0.855,0.155c-0.815,0.15-1.771,0.039-2.854-0.329c-0.673-0.229-0.963-0.427-1.071-0.518
			c-0.053-1.325-0.762-2.269-1.931-2.543c-0.18-0.041-0.361-0.061-0.539-0.061c-0.612,0-1.734,0.242-2.37,1.865l-0.034,0.096
			c-0.007,0.022-0.192,0.557-1.709,2.045c-1.147,1.128-2.689,2.518-4.584,4.132c-0.53,0.369-0.872,0.86-1.023,1.408
			c-0.724,0.52-1.474,1.042-2.247,1.564c-1.529,1.033-3.022,1.929-4.443,2.663c-0.83,0.432-1.327,0.567-1.599,0.614
			c0-0.217,0.036-0.598,0.196-1.21c0.345-1.318,0.991-2.381,1.976-3.249l0.081-0.076c0.897-0.917,1.08-2.173,0.498-3.452
			c-0.383-0.832-1.111-1.329-1.947-1.329c-1.013,0-1.835,0.719-2.315,1.212c-0.106,0.099-0.214,0.199-0.325,0.302
			c-0.428-0.615-1.024-1.181-1.784-1.693c-1.132-0.756-2.418-1.14-3.824-1.14c-1.992,0-3.979,0.727-5.903,2.161
			c-0.844,0.628-1.621,1.307-2.338,2.027c-0.46,0.289-0.947,0.585-1.483,0.896c-1.526,0.886-3.171,1.832-4.927,2.835
			c-1.729,0.986-3.491,1.892-5.236,2.69c-1.752,0.803-3.375,1.474-4.82,1.993c-1.316,0.472-2.387,0.711-3.18,0.711
			c-0.035,0-0.065-0.001-0.093-0.003c0.056-1.033,0.447-2.067,1.192-3.153c0.834-1.217,1.625-2.266,2.355-3.123
			c0.226-0.128,0.422-0.306,0.575-0.529c0.56-0.819,0.285-1.83-0.058-2.71l-0.095-0.198c-1.182-2.072-1.853-3.882-1.999-5.391
			l2.824-2.704c1.674-1.54,2.964-2.79,3.834-3.715c0.829-0.882,1.935-2.028,3.345-3.47c1.421-1.535,2.227-2.979,2.465-4.414
			c0.053-0.32,0.078-0.613,0.08-0.879l1.972-1.831l-2.188,0.559c-0.434-1.081-1.405-1.364-1.831-1.441
			c-1.124-0.159-2.543,0.168-4.281,1.027c-1.548,0.764-3.088,1.826-4.576,3.155c-1.48,1.321-2.831,2.916-4.017,4.741
			c-1.209,1.868-1.982,3.862-2.297,5.928l-0.142,0.543c-1.333,1.17-2.469,2.161-3.402,2.976c-1.012,0.877-1.907,1.642-2.687,2.284
			c-0.766,0.633-1.417,1.148-1.96,1.553c-0.616,0.461-1.189,0.96-1.702,1.482l-0.106,0.121c-0.3,0.38-0.527,0.812-0.671,1.275
			c-0.006,0.02-0.01,0.046-0.016,0.066c-0.694-0.591-1.806-0.973-3.346-1.131c-3.021-0.309-5.345-0.231-7.049,0.31
			c-1.935,0.231-4.415,0.544-7.514,0.931c-3.098,0.388-5.267,0.619-6.429,0.697c4.879-20.063,10.922-36.87,18.125-50.427
			c16.809-2.246,26.104-3.408,27.886-3.486c14.33-1.006,23.934-0.618,28.892,1.162c-0.542,1.705-0.31,2.867,0.62,3.486
			c1.162,0.853,2.324,0.697,3.408-0.465c1.085-1.162,1.627-2.4,1.627-3.718c0-1.706-0.698-3.021-2.091-3.951
			c-1.782-1.394-6.043-2.324-12.781-2.712c-10.457-0.541-24.943,0.388-43.454,2.789c0.387-0.852,0.465-1.702,0.231-2.477
			c-0.231-0.775-0.619-1.24-1.239-1.475c-1.085-0.386-2.091-0.309-2.944,0.234c-0.851,0.541-1.781,1.549-2.711,2.943
			c-0.928,1.396-1.471,2.168-1.548,2.246c-13.09,2.323-25.872,5.731-38.342,10.302c-0.387,0.233-1.162,0.543-2.246,0.931
			c-1.084,0.387-2.015,0.774-2.711,1.084c-0.697,0.309-1.472,0.696-2.324,1.161c-0.853,0.466-1.471,1.007-1.937,1.628
			c-0.465,0.618-0.697,1.315-0.697,2.012c0,1.009,0.387,1.783,1.084,2.402c0.697,0.618,1.704,0.853,3.021,0.618
			c0.465,0,0.853-0.153,1.162-0.387c0.31-0.231,0.62-0.541,0.931-1.006c0.31-0.466,0.541-0.775,0.775-1.007
			c0.387-0.233,1.084-0.543,2.09-0.931c1.007-0.387,1.706-0.696,2.093-0.928c10.146-3.642,21.301-6.74,33.461-9.296h0.465
			c-6.43,12.936-12.239,29.588-17.429,49.961c-2.866,0.31-6.971,0.931-12.394,1.858c-5.422,0.931-8.365,1.472-8.752,1.55
			c-0.233,0-0.697,0.078-1.472,0.231c-0.774,0.155-1.318,0.233-1.705,0.312c-0.387,0.075-0.775,0.231-1.162,0.463
			c-0.387,0.233-0.697,0.543-0.928,0.853c-0.234,0.31-0.311,0.697-0.234,1.24c0.078,1.471,1.86,2.09,5.345,1.78
			c2.867-0.231,6.817-0.696,11.852-1.394c5.035-0.696,7.825-1.084,8.365-1.162c-2.4,10.768-3.795,21.998-4.183,33.618
			c-0.31,1.78-0.31,3.948-0.077,6.507c0.232,2.555,1.084,3.795,2.557,3.795c0.619,0,1.084-0.078,1.471-0.31
			c0.388-0.233,0.619-0.543,0.697-1.008c0.078-0.466,0.156-1.007,0.233-1.625c0.077-0.621,0.077-1.24,0.077-1.861v-1.858
			c0.311-7.282,2.246-20.14,5.888-38.497c1.315-0.078,4.57-0.541,9.837-1.315s9.294-1.084,12.006-0.853
			c1.007,0.231,1.937,0.231,2.866,0.078c0.769-0.129,1.203-0.537,1.38-1.196c0.388,0.292,0.993,0.509,1.953,0.509h0.552l0.42-0.357
			c0.811-0.69,1.969-1.636,3.439-2.81c1.088-0.866,2.457-1.994,4.155-3.423c0.017,0.079,0.032,0.156,0.047,0.23
			c0.139,0.707,0.426,1.512,0.874,2.446c-1.168,1.68-2.155,3.454-2.938,5.285c-1.016,2.379-1.045,4.514-0.088,6.344l0.066,0.114
			c0.621,0.969,1.889,2.123,4.405,2.123c0.633,0,1.333-0.073,2.077-0.218c2.571-0.493,5.362-1.46,8.296-2.873
			c1.539-0.739,3.052-1.533,4.534-2.365c-0.129,2.322,0.907,3.672,1.881,4.409c0.561,0.461,1.285,0.704,2.099,0.704
			c0.595,0,1.238-0.122,1.963-0.373c1.282-0.44,2.721-1.104,4.276-1.972c1.551-0.864,3.073-1.898,4.524-3.072
			c0.287-0.231,0.567-0.46,0.84-0.687c0.004,0.024,0.009,0.048,0.014,0.072c0.421,2.164,1.785,3.063,2.858,3.438
			c1.394,0.485,3.059,0.299,5.058-0.576c1.695-0.743,3.408-1.679,5.092-2.783c1.674-1.1,3.234-2.234,4.638-3.37
			c0.088-0.071,0.162-0.13,0.248-0.199c-0.206,0.381-0.326,0.803-0.326,1.251c0,0.543,0.197,1.553,1.441,2.184
			c1.032,0.602,2.04,1.167,3.026,1.707c0.271,0.147,0.517,0.322,0.742,0.525c-2.811,1.39-4.946,2.471-6.36,3.224
			c-1.698,0.902-3.168,1.72-4.415,2.456c-4.503,2.874-8.064,5.529-10.583,7.894c-2.602,2.444-4.383,4.798-5.296,6.997l-0.043,0.116
			c-0.769,2.393-0.646,4.449,0.368,6.115c0.422,0.987,1.133,1.743,2.119,2.249c0.905,0.461,1.859,0.694,2.837,0.694
			c2.513,0,5.446-0.695,8.717-2.067c3.23-1.354,6.284-3.225,9.075-5.559c2.812-2.351,5.193-5.17,7.078-8.379
			c1.943-3.305,2.878-6.918,2.78-10.74l-0.05-0.364l0.085-0.045c2.462-1.301,4.813-2.619,7.014-3.925
			c0.163,0.245,0.33,0.488,0.519,0.715c0.919,1.108,2.05,1.989,3.36,2.616c1.311,0.627,2.745,0.944,4.262,0.944
			c2.094,0,4.281-0.352,6.497-1.044c2.156-0.671,4.292-1.539,6.349-2.578c2.038-1.026,4.016-2.195,5.878-3.475
			c1.855-1.275,3.477-2.543,4.821-3.768l0.083-0.081c0.066-0.07,0.118-0.145,0.177-0.217c0.389-0.264,0.788-0.557,1.193-0.881
			c0.788-0.629,1.533-1.294,2.212-1.977c0.1-0.1,0.193-0.193,0.281-0.279c0.685,0.592,1.475,1.087,2.363,1.479
			c0.936,0.413,1.87,0.618,2.745,0.606c0.855,3.796,2.622,6.801,5.261,8.947c2.878,2.346,6.273,3.855,10.089,4.488
			c1.348,0.225,2.738,0.338,4.13,0.338c2.493,0,5.086-0.364,7.709-1.081c4.082-1.117,7.736-3.008,10.783-5.561
			c1.192-0.871,1.591-2.191,1.066-3.537C1037.013,680.356,1035.922,680.202,1035.479,680.202z M944.589,677.124
			c-0.482,0.414-0.908,0.782-1.305,1.127c0.047-0.189,0.078-0.384,0.081-0.586c0.248-0.242,0.5-0.495,0.756-0.76
			C944.275,676.99,944.431,677.063,944.589,677.124z M923.29,711.385l-0.19-0.012c-0.256,0-0.582-0.023-0.861-0.118
			c0.034-0.203,0.121-0.55,0.336-1.1c0.479-1.43,1.72-3.18,3.685-5.2c2.023-2.072,5.316-4.339,9.79-6.736l0.175-0.11
			c0.603-0.438,1.202-0.821,1.787-1.14c0.644-0.354,1.404-0.765,2.278-1.234c0.882-0.472,1.928-1.036,3.134-1.688
			c0.665-0.358,1.45-0.793,2.374-1.313c-0.196,1.969-0.857,3.844-1.995,5.681c-1.661,2.678-3.766,5.025-6.257,6.978
			c-2.522,1.977-5.188,3.55-7.923,4.676C927.018,711.14,924.898,711.593,923.29,711.385z M911.223,685.436
			c0.36-0.972,0.986-2.03,1.861-3.146c0.31-0.396,0.646-0.77,0.996-1.135c0.52-0.367,0.983-0.706,1.38-1.012
			c0.341-0.146,0.716-0.446,0.979-1.01c0.931-0.636,1.771-0.974,2.49-0.974c0.961,0,1.233,0.186,1.236,0.186
			c0.268,0.267,0.547,0.524,0.821,0.76c-1.33,1.193-2.717,2.322-4.128,3.359c-1.466,1.078-2.885,1.998-4.219,2.735
			c-0.696,0.386-1.198,0.563-1.541,0.64C911.124,685.73,911.163,685.597,911.223,685.436z"/>
		<path fill="#FFFFFF" d="M1117.167,660.976c-0.452-0.492-0.969-0.741-1.539-0.741c-0.521,0-1.463,0.22-1.979,1.676
			c-0.408,0.926-0.873,1.725-1.383,2.375l-1.454,1.856c-0.53,0.269-0.969,0.797-1.077,1.62c-0.11,0.816,0.119,1.42,0.379,1.823
			c0.581,1.263,1.595,1.405,2.018,1.405c0.523,0,1.053-0.193,1.601-0.593c1.584-1.211,2.989-3.217,4.296-6.129
			c0.313-0.481,0.435-1.03,0.343-1.568C1118.259,662.045,1117.854,661.467,1117.167,660.976z"/>
		<path fill="#FFFFFF" d="M1349.143,681.793c-0.562-1.436-1.654-1.591-2.098-1.591c-0.523,0-1.053,0.192-1.622,0.608
			c-3.235,2.568-6.709,4.293-10.322,5.127c-3.612,0.834-6.97,0.92-9.983,0.264c-2.982-0.653-5.396-1.967-7.382-4.019
			c-1.926-1.983-2.902-4.5-2.984-7.652c0-1.209-0.885-2.055-2.152-2.055c-0.42,0-0.901,0.088-1.53,0.29
			c-0.879,0.32-1.584,0.328-2.173,0.006c-0.306-0.167-0.537-0.32-0.713-0.453c0.284-0.47,0.465-0.89,0.554-1.287
			c0.153-0.707,0.134-1.304-0.036-1.75c-0.355-1.116-1.317-1.783-2.573-1.783c-0.185,0-0.384,0.014-0.602,0.044
			c-1.474,0.212-2.393,1.423-2.734,3.603c-0.683,0.643-1.539,1.429-2.575,2.358c-0.674,0.607-1.267,1.146-1.795,1.632
			c-0.178,0.12-0.353,0.256-0.522,0.428c-2.405,2.041-5.304,4.031-8.617,5.917c-3.263,1.856-6.606,3.082-9.959,3.645
			c-1.605,0.292-2.964,0.117-4.147-0.545c-0.745-0.415-1.313-0.957-1.715-1.642c0.278-0.14,0.605-0.309,0.991-0.516
			c1.16-0.614,2.364-1.366,3.578-2.233c0.413-0.295,0.799-0.607,1.172-0.927c0.491-0.395,0.921-0.776,1.275-1.146
			c0.5-0.418,0.81-0.858,0.995-1.297c0.859-1.216,1.259-2.504,1.144-3.841c-0.146-1.67-1.057-2.856-2.571-3.341
			c-1.178-0.374-2.367-0.433-3.768-0.105c-1.548,0.422-3.083,1.389-4.562,2.873c-1.466,1.468-2.526,3.227-3.143,5.198
			c-0.232,0.692-0.383,1.357-0.494,2.009c-0.213,0.097-0.417,0.194-0.635,0.291c-2.441,1.076-4.946,2.111-7.45,3.079
			c-2.477,0.961-4.785,1.621-6.862,1.961c-1.983,0.323-3.632,0.357-4.884,0.099c-0.868-0.177-1.056-0.559-1.094-1.104
			c0-0.534,0.13-1.544,0.752-3.323c0.461-1.326,0.954-2.407,1.468-3.22c3.478-2.241,6.874-4.895,10.099-7.891
			c3.11-2.894,6.209-5.951,9.216-9.093c1.84,0.011,3.698,0.069,5.531,0.172c1.962,0.116,3.977,0.286,5.993,0.506
			c0.401,0.138,0.847,0.208,1.327,0.208c1.976,0,2.541-1.037,2.702-1.654l0.031-0.148c0.177-1.139-0.222-2.148-1.124-2.84
			l-1.375-0.636l-8.443-0.808c1.399-1.636,2.597-3.132,3.574-4.465c1.552-2.108,2.416-3.896,2.642-5.468l0.016-0.213
			c0-0.544-0.145-1.108-0.432-1.682l0.216-0.377l-0.34,0.145c-0.496-0.866-1.346-1.361-2.335-1.361
			c-1.164,0-2.536,0.562-4.319,1.768c-1.527,1.036-3.145,2.298-4.805,3.751c-1.604,1.402-3.215,2.882-4.785,4.4
			c-1.295,1.253-2.359,2.333-3.173,3.218c-3.406,0.01-6.692,0.101-9.775,0.268c-3.277,0.177-6.169,0.446-8.598,0.799
			c-0.487,0.018-0.928,0.142-1.312,0.371c-0.938,0.506-1.454,1.408-1.454,2.547c0,1.667,1.112,2.413,2.215,2.413
			c0.162,0,0.339-0.015,0.527-0.049c0.764-0.139,0.966-0.153,0.983-0.154l0.236-0.019c2.135-0.341,4.547-0.544,7.168-0.603
			c1.72-0.037,3.499-0.063,5.318-0.077c-1.844,2.332-3.464,4.479-4.834,6.406c-1.754,2.469-3.203,4.718-4.313,6.69l-5.185,3.832
			l-0.124,0.157c-0.199,0.253-0.342,0.519-0.456,0.788c-0.95,0.696-1.93,1.396-2.964,2.094c-1.527,1.032-3.021,1.928-4.441,2.662
			c-0.831,0.433-1.328,0.568-1.6,0.615c0-0.218,0.035-0.598,0.195-1.21c0.344-1.316,0.99-2.379,1.977-3.25l0.077-0.073
			c0.9-0.917,1.084-2.174,0.502-3.453c-0.382-0.833-1.11-1.33-1.947-1.33c-1.014,0-1.836,0.72-2.314,1.211
			c-0.106,0.099-0.215,0.2-0.325,0.302c-0.429-0.614-1.025-1.18-1.784-1.692c-1.131-0.756-2.417-1.14-3.825-1.14
			c-1.991,0-3.978,0.727-5.902,2.161c-1.018,0.757-1.937,1.592-2.77,2.482c-0.195,0.122-0.376,0.238-0.587,0.366
			c-1.723,1.041-3.682,2.058-5.824,3.024c-2.175,0.983-4.449,1.893-6.763,2.702c-2.269,0.795-4.375,1.34-6.262,1.618
			c-1.769,0.263-3.236,0.244-4.323-0.053c-0.558-0.152-0.841-0.382-0.841-1.215c0-0.768,0.155-1.578,0.463-2.411
			c0.201-0.548,0.446-1.117,0.713-1.695c0.305-0.313,0.615-0.788,0.691-1.454l0.091-0.221l2.137-1.516l0.092-0.07
			c2.172-1.807,4.743-4.095,7.645-6.801c2.886-2.688,5.801-5.509,8.665-8.384c2.781-2.792,5.43-5.484,7.873-8.001
			c2.481-2.56,4.264-4.425,5.471-5.729c2.447-2.763,4.403-5.2,5.813-7.243c1.537-2.221,2.393-4.056,2.615-5.609l0.016-0.213
			c0-0.721-0.188-1.339-0.528-1.818l0.069-0.133l-0.128,0.055c-0.502-0.65-1.302-1.023-2.304-1.023h-1.141l-0.281,0.12
			c-2.675,1.138-5.787,3.282-9.514,6.555c-3.592,3.155-7.26,6.778-10.899,10.767c-3.642,3.995-7.156,8.209-10.447,12.527
			c-3.307,4.341-5.984,8.243-7.958,11.598l-0.715,1.507l-0.659,0.423c-0.905,0.496-1.21,1.162-1.307,1.635
			c-0.027,0.131-0.041,0.286-0.039,0.454c-1.435,1.214-2.877,2.288-4.304,3.2c-1.828,1.166-3.517,2.008-5.016,2.501
			c-1.379,0.452-2.54,0.612-3.4,0.477c-0.683-0.109-0.92-0.379-1.064-0.751l-0.082-0.209l-0.033-0.042
			c-0.021-0.108-0.052-0.343-0.059-0.786c1.252-1.484,2.385-2.793,3.371-3.895c1.126-1.256,2.224-2.566,3.289-3.928
			c1.479-2.005,3.182-4.267,5.063-6.724c1.931-2.528,3.646-5.021,5.098-7.412c1.49-2.456,2.614-4.831,3.341-7.058
			c0.839-2.57,0.714-4.731-0.372-6.423l-0.134-0.208l-0.194-0.155c-1.999-1.593-4.529-1.452-7.18,0.499
			c-2.212,1.632-4.434,4.051-6.602,7.189c-2.122,3.069-4.104,6.512-5.892,10.233c-1.392,2.896-2.456,5.649-3.177,8.212
			c-0.08-0.034-0.162-0.066-0.244-0.097c-0.814-0.296-1.596-0.447-2.321-0.447c-1.709,0-3.455,0.859-5.338,2.626
			c-0.11,0.104-0.212,0.214-0.32,0.319c-0.402,0.068-0.806,0.247-1.205,0.536l-0.091,0.072c-2.687,2.289-5.648,4.354-8.806,6.138
			c-3.122,1.765-5.765,2.941-7.809,3.484c-0.242,0.057-0.424,0.083-0.554,0.095c-0.004-0.102,0-0.24,0.021-0.423
			c0.08-0.728,0.293-1.646,0.635-2.733c0.374-1.199,0.744-2.494,1.1-3.851c0.331-0.754,0.499-1.579,0.499-2.456
			c0-1.492-0.698-2.339-1.245-2.757c-1.804-1.477-4.132-1.427-6.766,0.251c-1.289,0.824-2.74,1.797-4.336,2.91
			c0.013-0.886-0.104-1.896-0.36-3.095c-0.483-1.826-1.588-2.099-2.203-2.099l-0.327,0.026c-0.548,0.091-1.538,0.472-2.021,2.005
			l-0.069,0.22v0.467c-0.029,0.042-0.085,0.113-0.188,0.214c-0.377,0.379-0.84,0.79-1.383,1.225c-0.57,0.462-1.205,0.95-1.904,1.467
			c-0.678,0.499-1.273,0.919-1.786,1.256c-0.301,0.173-0.55,0.383-0.754,0.615c-1.141,0.699-2.276,1.381-3.397,2.036
			c-2.132,1.249-4.116,2.229-5.952,2.933c-0.501,0.215-1.203,0.467-2.091,0.748c-0.773,0.248-1.462,0.373-2.047,0.373
			c-0.037,0-0.07-0.001-0.1-0.002c0.065-0.274,0.225-0.764,0.611-1.566c0.452-0.922,0.907-1.793,1.355-2.591
			c0.377-0.674,1.014-1.434,1.895-2.257c0.97-0.79,1.193-2.038,0.592-3.359c-0.232-0.509-0.516-0.858-0.808-1.097l0.008-0.012
			l-0.011,0.009c-0.497-0.404-1.018-0.486-1.356-0.486c-0.45,0-0.896,0.139-1.374,0.446c-1.042,0.725-1.876,1.352-2.482,1.866
			c-0.564,0.483-1.085,0.934-1.555,1.354c-0.444,0.397-0.952,0.821-1.526,1.271c-0.534,0.419-1.325,0.907-2.351,1.451l-0.205,0.132
			c-1.027,0.781-1.306,2.028-0.729,3.25c0.601,1.28,1.59,1.419,1.987,1.419c0.28,0,0.556-0.058,0.823-0.171
			c-0.269,1.426-0.073,2.712,0.569,3.805c0.523,0.957,1.625,2.098,3.903,2.098c0.534,0,1.122-0.064,1.746-0.192
			c2.14-0.435,4.449-1.217,6.865-2.326c2.385-1.098,4.674-2.357,6.8-3.745c0.784-0.511,1.491-0.98,2.12-1.405
			c-1.012,1.164-1.669,2.082-2.041,2.884c-0.835,2.126-0.139,3.126,0.584,3.585c0.807,0.522,1.812,0.552,2.745,0.075l0.289-0.192
			c0.361-0.307,0.804-0.799,1.393-1.551c0.483-0.617,0.967-1.288,1.438-1.998c0.691-0.655,1.679-1.53,3.012-2.665
			c1.359-1.154,2.749-2.229,4.132-3.197c1.13-0.79,2.154-1.408,3.052-1.84c-0.178,0.608-0.401,1.301-0.668,2.069
			c-0.594,1.702-0.97,3.342-1.12,4.874c-0.168,1.718,0.078,3.201,0.728,4.404c0.445,0.833,1.415,1.825,3.499,1.825
			c0.498,0,1.054-0.059,1.709-0.185c3.199-0.743,6.475-2.083,9.735-3.981c0.191-0.111,0.382-0.24,0.573-0.355
			c-0.205,0.958-0.27,1.886-0.179,2.764c0.14,1.347,0.812,2.438,1.942,3.154l0.368,0.232h0.254c0.564,0.328,1.189,0.494,1.865,0.494
			c0.623,0,1.284-0.147,1.96-0.437c1.21-0.513,2.482-1.258,3.781-2.214c1.248-0.92,2.483-1.939,3.672-3.032
			c0.412-0.379,0.805-0.735,1.178-1.07c0.671,1.543,1.728,2.571,3.157,3.068c1.829,0.639,3.959,0.585,6.302-0.164
			c2.169-0.689,4.429-1.828,6.718-3.384c0.146-0.1,0.288-0.206,0.434-0.307c0.139,1.299,0.584,2.403,1.365,3.265
			c0.861,0.956,1.844,1.604,2.922,1.926c1.164,0.456,2.534,0.688,4.072,0.688c1.126,0,2.373-0.123,3.708-0.367
			c3.006-0.547,6.095-1.438,9.181-2.651c1.411-0.555,2.774-1.148,4.095-1.77c-0.186,2.416,0.87,3.813,1.865,4.566
			c0.562,0.461,1.286,0.704,2.1,0.704c0.595,0,1.237-0.123,1.962-0.373c1.281-0.439,2.721-1.103,4.277-1.972
			c1.551-0.863,3.073-1.897,4.524-3.072c0.286-0.231,0.566-0.46,0.84-0.686c0.005,0.024,0.01,0.049,0.015,0.073
			c0.423,2.164,1.786,3.063,2.857,3.437c1.393,0.486,3.058,0.299,5.06-0.576c1.698-0.745,3.409-1.681,5.088-2.782
			c0.969-0.637,1.896-1.285,2.781-1.939c-0.012,0.23-0.027,0.465-0.027,0.686c0,1.644,0.412,3.001,1.221,4.027
			c0.791,1.016,1.855,1.695,3.165,2.021c1.033,0.397,2.255,0.599,3.634,0.599c1.344,0,2.887-0.191,4.586-0.568
			c3.268-0.726,6.647-1.796,10.047-3.182c1.407-0.573,2.775-1.178,4.115-1.8c0.289,0.583,0.631,1.134,1.049,1.634
			c0.918,1.108,2.048,1.988,3.36,2.616c1.311,0.627,2.745,0.944,4.262,0.944c2.094,0,4.28-0.352,6.497-1.044
			c2.156-0.672,4.292-1.54,6.349-2.578c2.038-1.026,4.016-2.195,5.878-3.475c1.86-1.279,3.481-2.547,4.82-3.768l0.081-0.08
			c0.066-0.07,0.118-0.145,0.178-0.217c0.39-0.264,0.789-0.558,1.194-0.881c0.773-0.616,1.518-1.281,2.213-1.978
			c0.101-0.1,0.193-0.193,0.28-0.279c0.685,0.592,1.476,1.086,2.364,1.479c0.935,0.413,1.849,0.616,2.744,0.606
			c0.856,3.796,2.622,6.802,5.26,8.947c2.879,2.346,6.274,3.855,10.091,4.488c1.349,0.225,2.738,0.338,4.13,0.338
			c2.493,0,5.086-0.364,7.709-1.081c4.069-1.113,7.712-2.995,10.825-5.592C1349.279,684.425,1349.662,683.119,1349.143,681.793z
			 M1266.439,654.924c0.992-0.933,1.935-1.775,2.823-2.522c-0.719,0.854-1.443,1.696-2.169,2.522H1266.439z M1260.65,661.395
			c0.31-0.363,0.591-0.692,0.846-0.985h0.241C1261.383,660.732,1261.021,661.061,1260.65,661.395z M1215.833,685.437
			c0.362-0.976,0.988-2.034,1.861-3.146c0.079-0.101,0.165-0.194,0.246-0.293c1.303-0.893,2.319-1.731,3.073-2.533
			c0.184-0.194,0.329-0.399,0.457-0.609c0.764-0.457,1.457-0.695,2.066-0.695c0.968,0,1.236,0.188,1.238,0.188
			c0.27,0.268,0.548,0.524,0.82,0.758c-1.334,1.197-2.722,2.326-4.131,3.359c-1.457,1.074-2.876,1.994-4.218,2.735
			c-0.696,0.386-1.197,0.563-1.54,0.64C1215.733,685.73,1215.773,685.597,1215.833,685.437z M1215.774,649.001
			c-2.104,2.216-4.452,4.591-6.981,7.059l-1.224,1.191c-0.503,0.489-1.005,0.977-1.505,1.464c1.147-1.371,2.34-2.751,3.571-4.133
			c3.011-3.376,6.209-6.659,9.504-9.756c1.148-1.077,2.294-2.083,3.435-3.013c-0.607,0.689-1.297,1.428-2.066,2.213
			c-0.991,1.035-2.507,2.63-4.548,4.779L1215.774,649.001z M1174.369,672.294c0.268-0.717,0.565-1.462,0.895-2.237
			c1.447-3.41,3.124-6.723,4.984-9.849c1.837-3.089,3.736-5.689,5.649-7.73c1.484-1.586,2.366-2.003,2.78-2.107
			c-0.021,0.104-0.052,0.232-0.097,0.386c-0.338,1.128-0.994,2.544-1.949,4.208c-1,1.736-2.241,3.671-3.688,5.749
			c-1.459,2.096-2.994,4.234-4.564,6.355C1177.009,668.921,1175.662,670.675,1174.369,672.294z M1164.537,678.205
			c1.228-1.134,1.772-1.166,1.831-1.166h0.011l0.201,0.057h0.208c0.429,0,0.659,0.059,0.763,0.093
			c0.072,0.489,0.242,0.836,0.45,1.082l-0.145,1.289c-0.659,0.708-1.475,1.509-2.431,2.387c-1.104,1.015-2.256,1.966-3.421,2.825
			c-1.165,0.857-2.242,1.574-3.203,2.13c-0.043,0.024-0.084,0.048-0.123,0.07c0.161-0.716,0.709-2.09,2.425-4.543
			C1162.147,680.768,1163.303,679.346,1164.537,678.205z"/>
		<path fill="#FFFFFF" d="M1104.835,675.657c0.93-0.156,1.394-0.696,1.472-1.627c0.232-1.937-1.162-3.099-4.183-3.408
			c-3.021-0.31-5.346-0.231-7.049,0.31c-1.936,0.231-4.416,0.543-7.515,0.931c-3.097,0.387-5.267,0.618-6.429,0.696
			c4.88-20.063,10.922-36.869,18.126-50.426c16.809-2.246,26.104-3.408,27.885-3.486c14.33-1.006,23.935-0.619,28.892,1.162
			c-0.542,1.705-0.309,2.867,0.62,3.486c1.162,0.852,2.324,0.696,3.408-0.466c1.085-1.162,1.627-2.399,1.627-3.718
			c0-1.705-0.697-3.02-2.091-3.951c-1.782-1.393-6.043-2.324-12.781-2.711c-10.456-0.541-24.942,0.387-43.454,2.789
			c0.388-0.853,0.466-1.703,0.231-2.477c-0.231-0.775-0.618-1.24-1.238-1.475c-1.086-0.386-2.092-0.309-2.944,0.234
			c-0.852,0.541-1.78,1.549-2.711,2.942c-0.929,1.396-1.472,2.168-1.548,2.246c-13.091,2.323-25.873,5.731-38.343,10.302
			c-0.388,0.234-1.162,0.543-2.246,0.931s-2.015,0.774-2.711,1.084c-0.697,0.31-1.472,0.696-2.324,1.162s-1.472,1.007-1.937,1.628
			c-0.466,0.618-0.697,1.314-0.697,2.012c0,1.009,0.388,1.783,1.084,2.401c0.697,0.619,1.704,0.854,3.021,0.619
			c0.465,0,0.853-0.153,1.162-0.388c0.309-0.231,0.619-0.54,0.93-1.006c0.31-0.465,0.541-0.774,0.775-1.006
			c0.387-0.233,1.084-0.543,2.09-0.931c1.008-0.388,1.705-0.696,2.093-0.928c10.146-3.642,21.301-6.741,33.461-9.296h0.466
			c-6.43,12.935-12.238,29.588-17.429,49.961c-2.866,0.309-6.971,0.931-12.394,1.858c-5.423,0.931-8.365,1.472-8.753,1.549
			c-0.232,0-0.696,0.078-1.471,0.231c-0.775,0.156-1.318,0.234-1.706,0.313c-0.387,0.075-0.774,0.231-1.162,0.463
			c-0.387,0.233-0.696,0.543-0.928,0.853c-0.233,0.309-0.311,0.696-0.233,1.239c0.077,1.472,1.859,2.091,5.345,1.781
			c2.867-0.231,6.816-0.697,11.851-1.394c5.036-0.696,7.825-1.084,8.366-1.162c-2.401,10.768-3.796,21.998-4.184,33.617
			c-0.309,1.781-0.309,3.949-0.076,6.507c0.232,2.556,1.084,3.796,2.557,3.796c0.619,0,1.084-0.078,1.472-0.31
			c0.387-0.234,0.618-0.543,0.696-1.009c0.078-0.465,0.156-1.006,0.232-1.625c0.077-0.621,0.077-1.239,0.077-1.861v-1.858
			c0.311-7.281,2.246-20.139,5.888-38.497c1.315-0.077,4.57-0.54,9.837-1.315c5.267-0.774,9.295-1.084,12.006-0.853
			C1102.977,675.811,1103.905,675.811,1104.835,675.657z"/>
	</g>
</g>
</svg>
