<?xml version="1.0" encoding="UTF-8"?>
<svg width="129px" height="44px" viewBox="0 0 129 44" version="1.1" xmlns="http://www.w3.org/2000/svg" xmlns:xlink="http://www.w3.org/1999/xlink">
    <!-- Generator: Sketch 50.2 (55047) - http://www.bohemiancoding.com/sketch -->
    <title>Mirum_Logo_Color</title>
    <desc>Created with Sketch.</desc>
    <defs>
        <polygon id="path-1" points="0.0297692308 0.276596772 129 0.276596772 129 43.970989 0.0297692308 43.970989"></polygon>
    </defs>
    <g id="––-DISCOVERY-––" stroke="none" stroke-width="1" fill="none" fill-rule="evenodd">
        <g id="Desktop-HD-Copy-6" transform="translate(-30.000000, -27.000000)">
            <g id="Mirum_Logo_Color" transform="translate(30.000000, 27.000000)">
                <mask id="mask-2" fill="white">
                    <use xlink:href="#path-1"></use>
                </mask>
                <g id="Clip-2"></g>
                <path d="M121.277365,40.3803956 C125.995788,41.5466374 127.784919,39.2973187 128.790623,37.8665934 C129.176135,37.3192527 128.990077,35.5945495 128.551973,35.7599121 C128.344581,35.8372747 127.816177,36.2371429 127.279835,36.7419341 C126.238408,37.7181538 124.917646,38.9105055 123.84,36.6930989 L123.832558,36.6916484 C123.218319,35.4262857 123.029285,34.994022 122.857615,33.6063297 C122.544542,31.0804396 123.067488,29.332044 122.941465,26.7877802 C122.852158,24.9567033 121.375604,24.2527033 119.6346,24.5805275 C118.189304,24.8522637 117.0159,25.622989 115.987869,26.7418462 C115.256538,27.5372308 114.517269,28.3224615 113.722927,29.1749011 C113.46195,27.8050989 113.304173,26.5716484 112.983162,25.4005714 C112.621465,24.082022 111.726404,23.672967 110.407131,23.8731429 C108.152112,24.214022 106.462708,25.5818901 104.971269,27.3510769 C104.443858,27.9781978 103.913469,28.4273846 103.289308,29.1715165 C103.261027,28.0908571 103.261027,27.4032967 103.214388,26.5436044 C103.132523,25.0398681 102.354058,24.4523956 101.044708,25.0964396 C99.3627462,25.9247033 98.2935346,27.5106374 97.0020462,29.3146374 C95.3756538,31.5890989 93.8088,35.9542857 91.7572038,37.2322198 C90.2201192,38.1059341 88.9544308,37.2713846 89.0625923,36.5030769 C89.41635,33.9767033 89.7859846,31.4643516 90.1203923,28.9394286 C90.4190769,26.678989 90.8328692,23.9645275 91.0045385,21.6736264 C91.1161731,20.1732747 90.3044654,19.4861978 88.8720692,19.5964396 C86.3729423,19.7879121 85.2709846,21.5919121 84.5049231,23.701011 C83.9388115,25.2564835 83.4639923,27.3597802 82.9767692,28.9573187 C82.1809385,31.5658901 81.3637731,34.1865495 79.3737,35.9958681 C78.6775962,36.6297582 77.7736038,37.1007033 76.8621692,37.385978 C75.9169962,37.679956 75.4396962,37.2331868 75.3196269,36.1375385 C75.2407385,35.4214505 75.2640577,34.6918242 75.3538615,33.9994286 C75.7795615,30.770989 76.2791885,28.3891868 76.6716462,25.153011 C76.9142654,23.1633407 75.6560192,22.8935385 73.6957154,23.2092747 C72.7540154,23.3606154 71.4411923,23.7904615 70.8165346,25.0872527 C70.6696731,25.3899341 70.5699462,25.6278242 70.4910577,25.8512088 L70.4900654,25.8483077 C70.4895692,25.8536264 70.4885769,25.857978 70.4865923,25.8628132 C70.4067115,26.0953846 70.35015,26.3163516 70.3025192,26.5668132 C69.1688077,30.756 67.6932462,33.3689231 66.2157,35.6574066 C64.3972962,38.4743736 61.6932577,41.154989 60.8522769,40.1236484 C59.0934115,37.9671648 61.8182885,33.2533626 63.0934038,30.4847473 C64.3680231,27.7161319 65.7498115,26.6272527 64.7912423,24.6535385 C64.0346077,23.0946813 62.7748731,21.1204835 60.8577346,21.3375824 C59.1291346,21.5348571 58.1914038,21.8897582 56.2514423,22.4022857 C54.7793538,22.7905495 55.8168115,21.2868132 56.0197385,20.2438681 C56.2841885,18.5723516 54.6195923,18.392967 53.0686154,18.6830769 C51.5196231,18.9717363 50.5952885,19.9121758 50.3313346,21.4231648 C50.0678769,22.9346374 51.6565615,24.2493187 51.6565615,24.3556923 C51.6565615,24.4610989 50.5064769,27.6706813 49.9607077,28.9756923 C48.18795,33.2258022 47.3246423,34.599956 46.04655,35.0752527 C44.7679615,35.552 44.2400538,34.1087033 44.3879077,32.9332747 C44.8111269,29.5660659 45.8565231,25.7917363 45.9388846,22.3945495 C46.0227346,18.9441758 45.6798923,17.9263736 43.6545923,16.5058022 C43.1266846,16.1359121 41.5767,16.2171429 40.5089769,18.6777582 C40.3492154,19.0476484 38.9262462,22.3703736 37.6293,25.4585934 C37.1023846,26.7152527 34.4588769,32.5551648 32.3586577,35.5515165 C31.5122192,36.6355604 30.6399808,37.2365714 30.2385923,36.3686593 C29.7305308,35.2657582 29.5519154,34.041978 29.4239077,32.7877363 C29.1673962,30.2937582 29.3708192,27.5633407 29.1331615,25.0654945 C28.9525615,23.173011 27.7627846,22.572 25.8436615,23.0932308 C24.3507346,23.4989011 23.1535154,24.3571429 22.1259808,25.5388571 C21.36885,26.4077363 20.6087423,27.2761319 19.7682577,28.2412308 C19.4388115,26.9212308 19.2180231,25.7105055 18.8295346,24.5771429 C18.3666231,23.2247473 17.4204577,22.9041758 15.9389423,23.2527912 C13.5832038,23.8078681 11.8630385,25.3135385 10.3587,27.1818462 C9.80995385,27.8640879 9.86056154,27.7741538 9.20067692,28.6169231 C9.16396154,27.8597363 9.28502308,26.7249231 9.02851154,25.1486593 C8.80722692,23.7943297 8.14436538,23.4964835 6.86528077,23.8402637 C5.58718846,24.1835604 4.84494231,24.5442637 4.84494231,24.5442637 C3.43735385,25.109011 1.10890385,26.4947692 0.393946154,27.6368352 C-0.162738462,28.5240879 -0.0868269231,30.3841758 0.35475,30.36 C1.49292692,30.2966593 2.66136923,28.7126593 3.11187692,28.2402637 C3.50036538,27.8312088 4.42767692,26.8777143 4.81070769,26.7877802 C4.81070769,26.7877802 4.53881538,27.8065495 4.30661538,28.585011 C4.07342308,29.363956 3.54551538,31.2254945 3.48498462,31.444044 C2.65293462,34.4597363 2.58148846,36.8381538 2.61721154,38.3452747 C2.65491923,39.9747253 2.45348077,41.7037802 4.96997308,42.2951209 C5.70775385,42.4687033 6.3726,42.724 6.81318462,42.4667692 C7.82434615,41.8763956 8.16768462,41.3261538 8.37904615,40.1768352 C8.54575385,39.2687912 8.18653846,36.4851868 8.43362308,34.1821978 C8.72486538,31.4701538 9.97666154,29.4272967 12.3011423,27.8843956 C13.4199692,27.1417143 14.6563846,27.4676044 14.8280538,28.6807473 C14.9119038,29.2725714 14.8479,29.9151648 14.7705,30.535033 C14.4738,32.9192527 14.1850385,33.9592967 13.9111615,36.3425495 C13.6486962,38.6421538 13.1838,39.732 15.3782885,40.8827692 C15.7007885,41.0524835 17.2869923,41.5693626 17.6427346,41.5795165 C19.5707885,41.6365714 19.8347423,40.2566154 19.9384385,38.8283077 C20.1031615,36.5809231 19.6615846,35.156 19.5871615,32.9178022 C19.5261346,31.0335385 19.6898654,30.4949011 21.4015962,29.0279121 C22.2366231,28.3118242 23.2110692,27.5676923 24.2291769,28.1029451 C25.1768308,28.6004835 25.0592423,29.714989 24.92925,30.7095824 C24.6935769,32.5043956 24.4072962,34.4321758 24.5204192,36.2163516 C24.7238423,39.4196484 27.1803,40.2512967 27.7583192,40.3963516 C29.9012077,40.9374066 31.6223654,39.6715604 32.9510654,38.1465495 C35.3122615,35.5012308 36.8260269,31.5871648 37.9150846,29.4007033 C38.9098731,27.4032967 39.1172654,26.664967 39.2993538,26.3139341 C39.1946654,28.9611868 38.2559423,31.3168791 38.2718192,34.0555165 C38.2812462,35.5486154 38.2609038,37.8535385 39.3445038,39.0478242 C40.2862038,40.0888352 40.9773462,40.3649231 42.0123231,40.1961758 C45.8252654,39.7426374 48.4568654,36.1525275 49.5399692,34.2943736 C51.0120577,31.767033 52.0237154,29.2967473 52.7907692,27.792044 C53.7518192,25.9126154 55.0274308,25.4155604 57.3950769,25.6592527 C58.8393808,25.8076923 59.7165808,26.3695385 59.2427538,27.2558242 C58.1075538,29.3823297 53.7726577,36.3594725 53.2229192,38.0251868 C52.4821615,40.2725714 53.3975654,44.058022 56.9788038,43.9995165 C63.0050885,43.8999121 67.1043115,37.8530549 69.2854038,33.557011 C69.2481923,35.1429451 69.4407,36.7370989 70.2380192,38.3148132 C70.9653808,39.7576264 72.0107769,40.9707692 73.6133538,41.0249231 C75.9060808,41.1047033 77.9601577,40.4156923 79.5587654,38.8935824 C80.8145308,37.6973626 81.9090462,36.3236923 83.0844346,35.0186813 C83.0769923,35.3208791 83.0407731,35.6477363 83.0640923,35.9784615 C83.1568731,37.3497143 83.2635462,38.104967 83.7626769,39.526022 C84.0246462,40.2696703 84.5540423,41.1801319 85.4153654,41.301978 C85.7730923,41.3522637 86.3436692,41.4581538 87.70065,41.1927033 C89.0571346,40.9272527 91.9492154,40.216 94.0618385,37.1887033 C95.4902654,35.1429451 97.4158385,31.5755604 98.51085,29.9074286 C98.4165808,30.2246154 98.1288115,31.079956 98.0285885,31.386989 C97.2774115,33.688044 97.3622538,36.3643077 97.3900385,38.2858022 C97.4232808,40.5776703 97.9650808,41.844967 100.348604,42.4377582 C102.799108,43.046989 103.301215,41.5253626 103.222327,39.6546374 C103.197023,39.0739341 102.647285,36.3996044 102.796627,34.0787253 C102.967304,31.4261538 104.541104,29.552044 106.714258,28.2151209 C107.873273,27.5029011 108.701354,27.9429011 108.772304,29.2904615 C108.803562,29.891956 108.701354,30.5214945 108.606588,31.1331429 C108.234969,33.4801319 108.035019,35.6206593 107.667369,37.9647473 C106.973746,42.3884396 110.841265,42.2114725 111.206435,42.2627253 C113.114642,42.5296264 113.850438,42.5866813 113.910473,40.5269011 C113.974477,38.324967 113.249596,36.710989 113.252573,34.5114725 C113.25555,32.6247912 113.542327,31.5006154 115.147881,30.1593407 C115.933788,29.5036923 116.875488,28.8364396 117.822646,29.3992527 C118.769804,29.9644835 118.568365,31.1046154 118.427458,32.1204835 C118.174915,33.9486593 118.120835,33.850989 118.182358,35.6071209 C118.266704,38.0861099 118.869531,38.8495824 119.579527,39.497978 C120.234946,40.0956044 121.277365,40.3803956 121.277365,40.3803956" id="Fill-1" fill="#1E1426" mask="url(#mask-2)"></path>
                <path d="M49.0001538,9.17665934 C49.1480077,9.12153846 49.3717731,9.23371429 49.7612538,9.06931868 C50.1507346,8.90492308 50.3740038,8.66654945 50.4151846,8.6327033 C50.4558692,8.59934066 50.0857385,8.80338462 49.9760885,8.8410989 C49.8669346,8.87978022 49.5116885,8.91120879 49.4491731,8.88751648 C49.3861615,8.86479121 50.3189308,8.42962637 50.6687192,8.09696703 C51.0185077,7.76382418 51.2551731,7.3509011 51.2938731,6.79969231 C51.3320769,6.248 51.2179615,5.93951648 51.2005962,5.57107692 C51.1827346,5.20312088 51.1956346,5.16298901 51.2060538,5.12285714 C51.2204423,5.08224176 51.0844962,5.04210989 51.0929308,4.99569231 C51.1008692,4.94830769 51.6228231,4.13213187 51.7835769,3.78013187 C52.1656154,2.94558242 50.9624423,1.3756044 50.5000269,1.11934066 C50.3794615,1.05213187 50.2082885,0.987340659 49.9676538,0.949142857 C49.7280115,0.911912088 48.0763154,-0.338945055 46.0063615,0.667252747 C44.5059923,1.3963956 42.8160923,2.97362637 45.2621308,7.32865934 C46.3234038,9.21920879 48.0083423,9.54848352 49.0001538,9.17665934" id="Fill-3" fill="#1E1426" mask="url(#mask-2)"></path>
            </g>
        </g>
    </g>
</svg>